<?xml version="1.0" standalone="no"?>
<!DOCTYPE svg PUBLIC "-//W3C//DTD SVG 20010904//EN"
 "http://www.w3.org/TR/2001/REC-SVG-20010904/DTD/svg10.dtd">
<svg version="1.0" xmlns="http://www.w3.org/2000/svg"
 width="700.000000pt" height="700.000000pt" viewBox="0 0 700.000000 700.000000"
 preserveAspectRatio="xMidYMid meet">
<metadata>
Created by potrace 1.11, written by Peter Selinger 2001-2013
</metadata>
<g transform="translate(0.000000,700.000000) scale(0.100000,-0.100000)"
fill="#000000" stroke="none">
<path d="M3257 6634 c-1 -1 -36 -5 -77 -9 -41 -4 -84 -9 -95 -11 -10 -2 -37
-6 -60 -9 -431 -59 -980 -288 -1345 -561 -292 -219 -700 -628 -730 -733 -9
-33 11 -86 66 -168 19 -28 53 -87 75 -130 60 -112 188 -336 334 -583 70 -118
135 -228 143 -245 9 -16 26 -44 39 -61 13 -17 23 -34 23 -37 0 -9 159 -267
178 -290 14 -16 18 -13 51 35 33 50 238 395 254 428 4 8 15 29 26 45 23 38
301 513 315 540 6 11 50 85 97 165 47 80 100 170 116 200 69 126 170 304 267
469 221 377 409 712 420 749 4 12 29 48 56 79 86 101 74 128 -62 129 -48 0
-89 -1 -91 -2z"/>
<path d="M3702 6518 c-83 -143 -236 -406 -260 -448 -10 -19 -66 -114 -122
-210 -56 -96 -114 -195 -128 -220 -14 -24 -49 -84 -78 -133 -30 -49 -54 -91
-54 -92 0 -2 -19 -36 -43 -77 -24 -40 -56 -94 -70 -120 -15 -27 -38 -68 -52
-92 -14 -25 -25 -46 -25 -48 0 -2 747 -3 1660 -3 913 0 1660 3 1660 7 0 11
-130 196 -234 333 -91 120 -335 375 -456 477 -125 106 -290 221 -464 324 -54
32 -236 123 -306 152 -30 13 -64 28 -75 33 -137 63 -544 173 -719 195 -23 3
-65 9 -95 15 -30 5 -60 9 -67 9 -6 0 -39 -46 -72 -102z"/>
<path d="M731 4999 c-25 -27 -78 -128 -127 -240 -34 -79 -128 -351 -138 -401
-3 -13 -14 -64 -25 -114 -20 -88 -45 -234 -56 -324 -3 -25 -8 -63 -10 -85 -15
-112 -21 -468 -10 -560 2 -22 7 -65 11 -95 14 -134 32 -228 79 -406 31 -120
103 -351 124 -399 55 -126 82 -175 103 -186 18 -10 160 -12 648 -11 900 3
1080 6 1080 16 0 4 -43 83 -96 175 -53 91 -108 186 -122 211 -14 25 -105 182
-202 350 -370 641 -518 896 -538 931 -46 82 -544 933 -608 1038 -38 63 -75
116 -81 118 -6 2 -20 -6 -32 -18z"/>
<path d="M4773 4838 c-62 -4 -122 -12 -133 -18 -23 -13 -35 12 148 -310 58
-102 116 -205 130 -230 14 -25 33 -57 43 -72 11 -14 19 -29 19 -32 0 -3 56
-101 123 -218 68 -117 129 -222 135 -233 6 -11 75 -130 153 -265 78 -135 154
-267 170 -295 15 -27 70 -124 123 -214 53 -90 96 -164 96 -166 0 -2 18 -33 40
-69 22 -36 40 -68 40 -71 0 -3 8 -18 19 -33 10 -15 92 -152 181 -304 89 -153
166 -281 172 -285 37 -22 174 254 263 529 33 101 83 294 90 343 1 11 10 61 18
110 28 163 40 305 40 500 1 141 -8 324 -18 376 -3 12 -7 45 -10 73 -2 28 -9
76 -15 106 -6 30 -13 69 -15 85 -11 74 -94 371 -125 440 -4 11 -19 49 -33 85
-14 36 -35 86 -47 113 l-21 47 -307 1 c-169 0 -424 3 -567 5 -483 9 -600 9
-712 2z"/>
<path d="M3537 4442 c-3 -4 -1 -38 4 -77 9 -75 34 -111 71 -102 23 6 48 -17
49 -46 1 -12 3 -33 5 -47 8 -45 7 -994 0 -1058 -9 -87 -20 -109 -60 -126 -48
-20 -68 -55 -70 -126 l-3 -60 421 5 c562 8 706 12 714 19 13 13 2 256 -14 309
-22 71 -175 2 -159 -72 9 -44 -22 -64 -120 -77 -79 -10 -505 -11 -512 -1 -6 9
-5 200 3 748 6 434 11 502 43 518 9 5 38 11 65 14 27 4 50 8 53 10 12 12 19
66 11 93 -16 61 -8 60 -405 79 -51 2 -94 1 -96 -3z"/>
<path d="M2800 4427 c-79 -19 -126 -44 -181 -98 -85 -84 -120 -181 -115 -319
10 -232 102 -333 401 -435 61 -21 127 -46 148 -57 85 -43 148 -126 163 -214
19 -112 6 -181 -43 -230 -114 -115 -346 -127 -505 -28 -52 33 -62 57 -60 147
2 73 1 78 -22 87 -24 9 -72 5 -111 -10 -32 -12 -43 -55 -40 -153 2 -91 13
-119 64 -165 204 -183 515 -222 710 -89 90 62 142 131 176 239 20 61 23 89 20
168 -4 112 -9 137 -37 198 -48 103 -151 174 -411 286 -122 53 -192 94 -222
131 -28 35 -30 41 -30 133 0 83 3 103 23 137 42 74 120 106 238 100 129 -7
209 -52 202 -115 -3 -30 1 -34 32 -46 53 -19 93 -17 119 7 21 20 22 26 16 102
-4 45 -13 94 -21 109 -24 46 -116 94 -214 112 -74 14 -246 15 -300 3z"/>
<path d="M5168 3173 c-25 -29 -290 -458 -391 -635 -11 -18 -65 -111 -121 -208
-57 -96 -192 -330 -301 -520 -339 -590 -615 -1071 -638 -1113 -12 -22 -27 -47
-32 -56 -38 -61 -145 -260 -145 -270 0 -13 3 -13 55 -2 42 10 108 18 210 26
33 3 94 10 136 15 72 10 91 13 149 25 14 2 36 6 50 9 89 15 315 85 460 143
497 197 935 514 1272 918 132 158 137 171 111 260 -13 46 -194 393 -270 520
-7 11 -16 27 -20 35 -8 17 -250 436 -353 610 -37 63 -86 148 -110 188 -23 39
-43 72 -45 72 -1 0 -9 -8 -17 -17z"/>
<path d="M1029 1865 c-3 -2 -46 -5 -98 -7 -51 -2 -95 -6 -97 -10 -8 -12 73
-147 106 -178 3 -3 25 -32 50 -64 134 -177 359 -407 538 -550 353 -282 793
-506 1197 -610 113 -29 468 -97 481 -92 15 6 110 150 248 376 59 96 111 182
116 190 15 24 127 213 207 350 40 69 78 132 83 140 5 8 47 83 94 165 97 173
142 262 135 270 -3 2 -64 8 -135 11 -141 7 -2919 16 -2925 9z"/>
</g>
</svg>
